<mxfile host="65bd71144e">
    <diagram id="wnSZFvbqJfbgUPwq1TmN" name="Страница 1">
        <mxGraphModel dx="807" dy="613" grid="1" gridSize="10" guides="1" tooltips="1" connect="1" arrows="1" fold="1" page="1" pageScale="1" pageWidth="827" pageHeight="1169" math="0" shadow="0">
            <root>
                <mxCell id="0"/>
                <mxCell id="1" parent="0"/>
                <mxCell id="5" style="edgeStyle=none;html=1;fontSize=14;entryX=0;entryY=0.5;entryDx=0;entryDy=0;" parent="1" edge="1">
                    <mxGeometry relative="1" as="geometry">
                        <mxPoint x="270" y="295" as="targetPoint"/>
                        <mxPoint x="90" y="295" as="sourcePoint"/>
                    </mxGeometry>
                </mxCell>
                <mxCell id="7" style="edgeStyle=none;html=1;fontSize=14;entryX=0.352;entryY=0;entryDx=0;entryDy=0;entryPerimeter=0;" parent="1" edge="1">
                    <mxGeometry relative="1" as="geometry">
                        <mxPoint x="375.4000000000001" y="259.91" as="targetPoint"/>
                        <mxPoint x="375" y="159.91" as="sourcePoint"/>
                    </mxGeometry>
                </mxCell>
                <mxCell id="9" style="edgeStyle=none;html=1;fontSize=14;entryX=0.651;entryY=0.001;entryDx=0;entryDy=0;entryPerimeter=0;" parent="1" edge="1">
                    <mxGeometry relative="1" as="geometry">
                        <mxPoint x="455.2000000000003" y="260.00000000000006" as="targetPoint"/>
                        <mxPoint x="455" y="159.91" as="sourcePoint"/>
                    </mxGeometry>
                </mxCell>
                <mxCell id="15" style="edgeStyle=none;html=1;fontSize=14;entryX=0.5;entryY=1;entryDx=0;entryDy=0;" parent="1" target="2" edge="1">
                    <mxGeometry relative="1" as="geometry">
                        <mxPoint x="350" y="440" as="targetPoint"/>
                        <mxPoint x="370" y="410" as="sourcePoint"/>
                    </mxGeometry>
                </mxCell>
                <mxCell id="2" value="&lt;font&gt;&lt;span style=&quot;color: light-dark(rgb(0, 0, 0), rgb(237, 237, 237)); font-size: 14px;&quot;&gt;Сжать статическое&amp;nbsp;&lt;br&gt;&lt;/span&gt;&lt;font style=&quot;font-size: 14px; color: rgb(0, 0, 0);&quot;&gt;изображение&lt;/font&gt;&lt;/font&gt;" style="rounded=0;whiteSpace=wrap;html=1;" parent="1" vertex="1">
                    <mxGeometry x="270" y="260" width="200" height="90" as="geometry"/>
                </mxCell>
                <mxCell id="6" value="Имя входного файла" style="text;html=1;align=center;verticalAlign=middle;resizable=0;points=[];autosize=1;strokeColor=none;fillColor=none;fontSize=14;" parent="1" vertex="1">
                    <mxGeometry x="95" y="270" width="160" height="30" as="geometry"/>
                </mxCell>
                <mxCell id="8" value="Алгоритм &lt;br&gt;сжатия&amp;nbsp;&lt;div&gt;&lt;font style=&quot;color: rgb(0, 0, 0);&quot;&gt;LZW&lt;/font&gt;&lt;/div&gt;" style="text;html=1;align=center;verticalAlign=middle;resizable=0;points=[];autosize=1;strokeColor=none;fillColor=none;fontSize=14;" parent="1" vertex="1">
                    <mxGeometry x="370" y="159.91" width="90" height="60" as="geometry"/>
                </mxCell>
                <mxCell id="10" value="Алгоритм&lt;br&gt;сжатия&amp;nbsp;&lt;div&gt;&lt;font style=&quot;color: rgb(0, 0, 0);&quot;&gt;Хаффмана&lt;/font&gt;&lt;/div&gt;" style="text;html=1;align=center;verticalAlign=middle;resizable=0;points=[];autosize=1;strokeColor=none;fillColor=none;fontSize=14;" parent="1" vertex="1">
                    <mxGeometry x="450" y="159.91" width="100" height="60" as="geometry"/>
                </mxCell>
                <mxCell id="16" value="ЭВМ" style="text;html=1;align=center;verticalAlign=middle;resizable=0;points=[];autosize=1;strokeColor=none;fillColor=none;fontSize=14;" parent="1" vertex="1">
                    <mxGeometry x="370" y="370" width="50" height="30" as="geometry"/>
                </mxCell>
                <mxCell id="17" value="A0" style="text;html=1;align=center;verticalAlign=middle;resizable=0;points=[];autosize=1;strokeColor=default;fillColor=none;fontSize=14;" parent="1" vertex="1">
                    <mxGeometry x="430" y="320" width="40" height="30" as="geometry"/>
                </mxCell>
                <mxCell id="18" value="Сжатое изображение" style="text;html=1;align=center;verticalAlign=middle;resizable=0;points=[];autosize=1;strokeColor=none;fillColor=none;fontSize=14;" parent="1" vertex="1">
                    <mxGeometry x="470" y="280" width="170" height="30" as="geometry"/>
                </mxCell>
                <mxCell id="22" style="edgeStyle=none;html=1;exitX=0.999;exitY=0.222;exitDx=0;exitDy=0;fontSize=14;exitPerimeter=0;" parent="1" edge="1">
                    <mxGeometry relative="1" as="geometry">
                        <mxPoint x="650.2" y="310.01999999999987" as="targetPoint"/>
                        <mxPoint x="470.00000000000017" y="310" as="sourcePoint"/>
                    </mxGeometry>
                </mxCell>
                <mxCell id="25" style="edgeStyle=none;html=1;fontSize=14;entryX=0;entryY=0.5;entryDx=0;entryDy=0;" parent="1" edge="1">
                    <mxGeometry relative="1" as="geometry">
                        <mxPoint x="270" y="324.74" as="targetPoint"/>
                        <mxPoint x="90" y="324.74" as="sourcePoint"/>
                    </mxGeometry>
                </mxCell>
                <mxCell id="26" value="Имя выходного файла" style="text;html=1;align=center;verticalAlign=middle;resizable=0;points=[];autosize=1;strokeColor=none;fillColor=none;fontSize=14;" parent="1" vertex="1">
                    <mxGeometry x="90" y="300" width="170" height="30" as="geometry"/>
                </mxCell>
                <mxCell id="31" value="Цветовая&amp;nbsp;&lt;div&gt;&lt;font&gt;&lt;font style=&quot;color: rgb(0, 0, 0);&quot;&gt;модель&amp;nbsp;&lt;/font&gt;&lt;span style=&quot;background-color: transparent;&quot;&gt;&lt;font style=&quot;color: rgb(0, 0, 0);&quot;&gt;RGB&lt;/font&gt;&lt;/span&gt;&lt;/font&gt;&lt;/div&gt;" style="text;html=1;align=center;verticalAlign=middle;resizable=0;points=[];autosize=1;strokeColor=none;fillColor=none;fontSize=14;" vertex="1" parent="1">
                    <mxGeometry x="270" y="159.91" width="110" height="50" as="geometry"/>
                </mxCell>
                <mxCell id="32" style="edgeStyle=none;html=1;fontSize=14;entryX=0.352;entryY=0;entryDx=0;entryDy=0;entryPerimeter=0;" edge="1" parent="1">
                    <mxGeometry relative="1" as="geometry">
                        <mxPoint x="280.4000000000001" y="259.91" as="targetPoint"/>
                        <mxPoint x="280" y="159.91" as="sourcePoint"/>
                    </mxGeometry>
                </mxCell>
            </root>
        </mxGraphModel>
    </diagram>
</mxfile>